<?xml version='1.0' encoding='UTF-8'?><!DOCTYPE svg PUBLIC "-//W3C//DTD SVG 1.1//EN" "http://www.w3.org/Graphics/SVG/1.1/DTD/svg11.dtd"><svg xmlns:xlink="http://www.w3.org/1999/xlink" xmlns="http://www.w3.org/2000/svg" version="1.1" x="0" y="0" width="84px" height="113px" viewBox="0 0 84 113" preserveAspectRatio="none"><g transform="translate(63,29)"><rect y="0" fill="#4387FD" fill-opacity="0" width="21" height="21"/>
<polygon fill="#1155CC" points="7,8 10.545,12 14,8 "/>
</g><g transform="translate(42,29)"><path d="M11,9V5H4v11h13V9H11z M7,14H6v-1h1V14z M7,12H6v-1h1V12z M7,10H6V9h1V10z M7,8H6V7h1V8z M9,14H8v-1h1V14z M9,12H8v-1h1V12z   M9,10H8V9h1V10z M9,8H8V7h1V8z M13,14h-1v-1h1V14z M13,12h-1v-1h1V12z M15,14h-1v-1h1V14z M15,12h-1v-1h1V12z"/>
<rect fill="#4387FD" fill-opacity="0" width="21" height="21"/>
</g><g transform="translate(21,71)"><path d="M8.214,18.199H6.5c-0.939,0-1.7-0.762-1.7-1.699c0-0.938,0.761-1.701,1.7-1.701h1.714c0.364,0,0.593,0.174,0.786,0.451h1  C9.707,14.541,8.947,14,8.214,14H6.5C5.118,14,4,15.119,4,16.5C4,17.879,5.118,19,6.5,19h1.714c0.733,0,1.493-0.541,1.786-1.25H9  C8.807,18.026,8.578,18.199,8.214,18.199z M7,16.498C7,16.774,7.225,17,7.5,17h6c0.275,0,0.5-0.226,0.5-0.502  C14,16.223,13.775,16,13.5,16h-6C7.225,16,7,16.221,7,16.498z M14.5,14h-1.715c-0.732,0-1.492,0.541-1.785,1.25h1  c0.193-0.277,0.422-0.451,0.785-0.451H14.5c0.939,0,1.7,0.763,1.7,1.701c0,0.938-0.761,1.699-1.7,1.699h-1.715  c-0.363,0-0.592-0.173-0.785-0.449h-1c0.293,0.709,1.053,1.25,1.785,1.25H14.5c1.382,0,2.49-1.121,2.49-2.5  C16.99,15.119,15.882,14,14.5,14z M11,6V2H4v11h13V6H11z M7,11H6v-1h1V11z M7,9H6V8h1V9z M7,7H6V6h1V7z M7,5H6V4h1V5z M9,11H8v-1h1  V11z M9,9H8V8h1V9z M9,7H8V6h1V7z M9,5H8V4h1V5z M13,11h-1v-1h1V11z M13,9h-1V8h1V9z M15,11h-1v-1h1V11z M15,9h-1V8h1V9z"/>
<rect fill="#4387FD" fill-opacity="0" width="21" height="21"/>
</g><g transform="translate(0,50)"><path fill="#FFFFFF" d="M8.214,18.199H6.5c-0.939,0-1.7-0.762-1.7-1.699c0-0.938,0.761-1.701,1.7-1.701h1.714  c0.364,0,0.593,0.174,0.786,0.451h1C9.707,14.541,8.947,14,8.214,14H6.5C5.118,14,4,15.119,4,16.5C4,17.879,5.118,19,6.5,19h1.714  c0.733,0,1.493-0.541,1.786-1.25H9C8.807,18.026,8.578,18.199,8.214,18.199z M7,16.498C7,16.774,7.225,17,7.5,17h6  c0.275,0,0.5-0.226,0.5-0.502C14,16.223,13.775,16,13.5,16h-6C7.225,16,7,16.221,7,16.498z M14.5,14h-1.715  c-0.732,0-1.492,0.541-1.785,1.25h1c0.193-0.277,0.422-0.451,0.785-0.451H14.5c0.939,0,1.7,0.763,1.7,1.701  c0,0.938-0.761,1.699-1.7,1.699h-1.715c-0.363,0-0.592-0.173-0.785-0.449h-1c0.293,0.709,1.053,1.25,1.785,1.25H14.5  c1.382,0,2.49-1.121,2.49-2.5C16.99,15.119,15.882,14,14.5,14z M11,6V2H4v11h13V6H11z M7,11H6v-1h1V11z M7,9H6V8h1V9z M7,7H6V6h1V7z   M7,5H6V4h1V5z M9,11H8v-1h1V11z M9,9H8V8h1V9z M9,7H8V6h1V7z M9,5H8V4h1V5z M13,11h-1v-1h1V11z M13,9h-1V8h1V9z M15,11h-1v-1h1V11z   M15,9h-1V8h1V9z"/>
<rect fill="#4387FD" fill-opacity="0" width="21" height="21"/>
</g><g transform="translate(0,92)"><path fill="#FFFFFF" d="M11,9V5H4v11h13V9H11z M7,14H6v-1h1V14z M7,12H6v-1h1V12z M7,10H6V9h1V10z M7,8H6V7h1V8z M9,14H8v-1h1V14z   M9,12H8v-1h1V12z M9,10H8V9h1V10z M9,8H8V7h1V8z M13,14h-1v-1h1V14z M13,12h-1v-1h1V12z M15,14h-1v-1h1V14z M15,12h-1v-1h1V12z"/>
<rect fill="#4387FD" fill-opacity="0" width="21" height="21"/>
</g><g transform="translate(42,92)"><path d="M11,10c1.104,0,2-0.896,2-2s-0.896-2-2-2C9.896,6,9.001,6.896,9.001,8S9.896,10,11,10z M11,11c-2,0-4,0.699-4,1.6V14h8v-1.4  C15,11.699,13,11,11,11z"/>
<circle cx="5.646" cy="9.5" r="1.5"/>
<path d="M5.646,12.125c-1.25,0-2.5,0.438-2.5,1V14h5v-0.875C8.146,12.562,6.896,12.125,5.646,12.125z"/>
<circle cx="16.5" cy="9.5" r="1.5"/>
<path d="M16.5,12.125c-1.25,0-2.5,0.438-2.5,1V14h5v-0.875C19,12.562,17.75,12.125,16.5,12.125z"/>
<rect fill="#4387FD" fill-opacity="0" width="21" height="21"/>
</g><g transform="translate(50,0)"><rect x="0" y="0" fill="#4387FD" fill-opacity="0" width="29" height="29"/>
<path fill="#4D90FE" d="M25,5.19H3.781C2.8,5.19,2.004,5.99,2,6.972V21.22C2,22.204,2.796,23,3.781,23H25c0.984,0,2-0.796,2-1.78  V6.972C26.997,5.99,25.979,5.19,25,5.19z"/>
<path fill="#FFFFFF" d="M14.468,15.942c-0.187,0-0.373-0.058-0.529-0.175L3.964,8.402C3.57,8.109,3.486,7.548,3.78,7.155  C4.074,6.76,4.627,6.674,5.026,6.969l9.441,6.975l9.441-6.976c0.403-0.294,0.952-0.209,1.247,0.185  c0.292,0.396,0.209,0.955-0.185,1.246l-9.975,7.368C14.84,15.885,14.653,15.942,14.468,15.942z"/>
</g><g transform="translate(0,0)"><rect fill="none" width="29" height="29"/>
<path fill="#4D90FE" d="M25.805,10.054c-0.005-0.019-0.026-0.044-0.071-0.076L14.706,1.863c-0.151-0.113-0.334-0.172-0.515-0.172  c-0.183,0-0.364,0.056-0.518,0.172L2.601,10.02c-0.029,0.021-0.033,0.033-0.046,0.045c-0.337,0.32-0.554,0.762-0.555,1.26V25.26  C2,26.219,2.778,27,3.741,27H25c0.962,0,2-0.781,2-1.74V11.325C26.998,10.821,26.153,10.372,25.805,10.054z"/>
<path fill="#FFFFFF" d="M14.191,19.285c-0.184,0-0.364-0.057-0.518-0.172L3.92,11.911c-0.387-0.285-0.469-0.835-0.18-1.219  c0.287-0.384,0.829-0.469,1.217-0.18L14.191,17l9.23-6.822c0.395,0.047,0.935,0.13,1.219,0.514c0.287,0.387,0.204,0.934-0.18,1.219  l-9.757,7.202C14.555,19.229,14.372,19.285,14.191,19.285z"/>
</g><g transform="translate(63,71)"><path d="M14,9V8.5C14,6.565,12.434,5,10.5,5S7,6.565,7,8.5V9c-0.553,0-1,0.446-1,1v5c0,0.553,0.447,1,1,1h7c0.553,0,1-0.447,1-1v-5  C15,9.446,14.553,9,14,9z M10.5,14.25c-0.968,0-1.75-0.783-1.75-1.75c0-0.968,0.782-1.75,1.75-1.75c0.967,0,1.75,0.782,1.75,1.75  C12.25,13.467,11.467,14.25,10.5,14.25z M13,9H8V8.5C8,7,9,5.899,10.5,5.899S13,7,13,8.5V9z"/>
<rect fill="#4387FD" fill-opacity="0" width="21" height="21"/>
</g><g transform="translate(42,71)"><path fill="#FFFFFF" d="M14,9V8.5C14,6.565,12.434,5,10.5,5S7,6.565,7,8.5V9c-0.553,0-1,0.446-1,1v5c0,0.553,0.447,1,1,1h7  c0.553,0,1-0.447,1-1v-5C15,9.446,14.553,9,14,9z M10.5,14.25c-0.968,0-1.75-0.783-1.75-1.75c0-0.968,0.782-1.75,1.75-1.75  c0.967,0,1.75,0.782,1.75,1.75C12.25,13.467,11.467,14.25,10.5,14.25z M13,9H8V8.5C8,7,9,5.899,10.5,5.899S13,7,13,8.5V9z"/>
<rect fill="#4387FD" fill-opacity="0" width="21" height="21"/>
</g><g transform="translate(42,50)"><path d="M10,10c1.656,0,3-1.342,3-3c0-1.656-1.344-3-3-3S7,5.344,7,7C7,8.658,8.344,10,10,10z M10,12c-2,0-6,1-6,3v2h12v-2  C16,13,12,12,10,12z"/>
<rect fill="#4387FD" fill-opacity="0" width="21" height="21"/>
</g><g transform="translate(21,92)"><path d="M16,11.166C16,9.332,12.333,8.6,10.5,8.6S5,9.332,5,11.166v1.832h11V11.166z M10.5,7c1.38,0,2.49-1.119,2.49-2.5  S11.88,2,10.5,2S8,3.119,8,4.5S9.12,7,10.5,7z M7,16.498C7,16.774,7.225,17,7.5,17h6c0.275,0,0.5-0.226,0.5-0.502  C14,16.223,13.775,16,13.5,16h-6C7.225,16,7,16.221,7,16.498z M8.214,18.199H6.5c-0.939,0-1.7-0.762-1.7-1.699  c0-0.938,0.761-1.701,1.7-1.701h1.714c0.364,0,0.593,0.174,0.786,0.451h1C9.707,14.541,8.947,14,8.214,14H6.5  C5.118,14,4,15.119,4,16.5C4,17.879,5.118,19,6.5,19h1.714c0.733,0,1.493-0.541,1.786-1.25H9  C8.807,18.026,8.578,18.199,8.214,18.199z M14.5,14h-1.715c-0.732,0-1.492,0.541-1.785,1.25h1c0.193-0.277,0.422-0.451,0.785-0.451  H14.5c0.939,0,1.7,0.763,1.7,1.701c0,0.938-0.761,1.699-1.7,1.699h-1.715c-0.363,0-0.592-0.173-0.785-0.449h-1  c0.293,0.709,1.053,1.25,1.785,1.25H14.5c1.382,0,2.49-1.121,2.49-2.5C16.99,15.119,15.882,14,14.5,14z"/>
<rect fill="#4387FD" fill-opacity="0" width="21" height="21"/>
</g><g transform="translate(21,50)"><path fill="#FFFFFF" d="M16,11.166C16,9.332,12.333,8.6,10.5,8.6S5,9.332,5,11.166v1.832h11V11.166z M10.5,7  c1.38,0,2.49-1.119,2.49-2.5S11.88,2,10.5,2S8,3.119,8,4.5S9.12,7,10.5,7z M7,16.498C7,16.774,7.225,17,7.5,17h6  c0.275,0,0.5-0.226,0.5-0.502C14,16.223,13.775,16,13.5,16h-6C7.225,16,7,16.221,7,16.498z M8.214,18.199H6.5  c-0.939,0-1.7-0.762-1.7-1.699c0-0.938,0.761-1.701,1.7-1.701h1.714c0.364,0,0.593,0.174,0.786,0.451h1  C9.707,14.541,8.947,14,8.214,14H6.5C5.118,14,4,15.119,4,16.5C4,17.879,5.118,19,6.5,19h1.714c0.733,0,1.493-0.541,1.786-1.25H9  C8.807,18.026,8.578,18.199,8.214,18.199z M14.5,14h-1.715c-0.732,0-1.492,0.541-1.785,1.25h1c0.193-0.277,0.422-0.451,0.785-0.451  H14.5c0.939,0,1.7,0.763,1.7,1.701c0,0.938-0.761,1.699-1.7,1.699h-1.715c-0.363,0-0.592-0.173-0.785-0.449h-1  c0.293,0.709,1.053,1.25,1.785,1.25H14.5c1.382,0,2.49-1.121,2.49-2.5C16.99,15.119,15.882,14,14.5,14z"/>
<rect fill="#4387FD" fill-opacity="0" width="21" height="21"/>
</g><g transform="translate(0,29)"><g>
	<path d="M10,2c-4.418,0-8,3.582-8,8s3.582,8,8,8s8-3.582,8-8S14.418,2,10,2z M10,17.099c-3.921,0-7.1-3.179-7.1-7.101   c0-1.045,0.23-2.033,0.638-2.925L5,9.998c0,0,4,2.99,4,3v0.913c0,1.087,1,0.997,1,1.087V17.099z M15,15.039v-1.08   C15,13.272,14.749,13,14.064,13H12v-1c0,0,0-2-2-2H7l0.012-2h0.973c0.668,0,1.017,0,1.017-0.875V6h1.065c1.935,0,1.935-2,1.935-2   V3.189C14.947,4.053,17.1,6.772,17.1,10C17.1,11.969,16.296,13.752,15,15.039z"/>
	<rect fill="#4387FD" fill-opacity="0" width="21" height="21"/>
</g>
</g><g transform="translate(29,0)"><path fill="#FFFFFF" d="M10,2c-4.418,0-8,3.582-8,8s3.582,8,8,8s8-3.582,8-8S14.418,2,10,2z M10,17.099  c-3.921,0-7.1-3.179-7.1-7.101c0-1.045,0.23-2.033,0.638-2.925L5,9.998c0,0,4,2.99,4,3v0.913c0,1.087,1,0.997,1,1.087V17.099z   M15,15.039v-1.08C15,13.272,14.749,13,14.064,13H12v-1c0,0,0-2-2-2H7l0.012-2h0.973c0.668,0,1.017,0,1.017-0.875V6h1.065  c1.935,0,1.935-2,1.935-2V3.189C14.947,4.053,17.1,6.772,17.1,10C17.1,11.969,16.296,13.752,15,15.039z"/>
<rect fill="#4387FD" fill-opacity="0" width="21" height="21"/>
</g><g transform="translate(0,71)"><rect fill="#4387FD" fill-opacity="0" width="21" height="21"/>
<polygon fill="#999999" points="15.5,7.414 14.085,6 10.5,9.586 6.914,6 5.5,7.414 9.085,11 5.5,14.586 6.914,16 10.5,12.414   14.085,16 15.5,14.586 11.914,11 "/>
</g><g transform="translate(21,29)"><rect fill="#4387FD" fill-opacity="0" width="21" height="21"/>
<polygon fill="#CC0000" points="15.5,7.414 14.085,6 10.5,9.586 6.914,6 5.5,7.414 9.085,11 5.5,14.586 6.914,16 10.5,12.414   14.085,16 15.5,14.586 11.914,11 "/>
</g></svg>